<?xml version="1.0" standalone="no"?>
<!DOCTYPE svg PUBLIC "-//W3C//DTD SVG 20010904//EN"
 "http://www.w3.org/TR/2001/REC-SVG-20010904/DTD/svg10.dtd">
<svg version="1.0" xmlns="http://www.w3.org/2000/svg"
 width="533.000000pt" height="537.000000pt" viewBox="0 0 533.000000 537.000000"
 preserveAspectRatio="xMidYMid meet">

<g transform="translate(0.000000,537.000000) scale(0.100000,-0.100000)"
fill="#000000" stroke="none">
<path d="M3310 4675 c-156 -22 -368 -83 -470 -136 l-35 -18 93 -1 c258 -1 496
-59 728 -179 66 -34 144 -80 172 -102 29 -21 56 -39 60 -39 20 0 272 -246 296
-289 5 -9 30 -43 55 -76 60 -78 160 -275 199 -390 17 -49 43 -162 58 -250 22
-136 26 -179 21 -285 -7 -152 -20 -243 -58 -380 -32 -114 -76 -224 -123 -310
-17 -30 -38 -67 -46 -82 -84 -152 -275 -358 -456 -490 -67 -49 -341 -188 -424
-215 -56 -19 -65 -25 -62 -44 3 -30 71 -201 86 -216 18 -20 187 -24 311 -8
251 33 430 82 587 161 190 95 252 136 407 268 200 171 377 419 478 672 6 16
18 46 26 66 27 66 74 271 87 378 27 219 11 439 -50 682 -39 158 -139 371 -248
531 -90 131 -313 362 -407 422 -33 21 -63 42 -66 47 -3 5 -28 21 -56 36 -28
15 -77 42 -109 60 -65 36 -248 110 -334 134 -212 61 -506 82 -720 53z"/>
</g>
</svg>
